<?xml version="1.0" encoding="UTF-8" standalone="no"?>
<svg
   xmlns:dc="http://purl.org/dc/elements/1.1/"
   xmlns:cc="http://creativecommons.org/ns#"
   xmlns:rdf="http://www.w3.org/1999/02/22-rdf-syntax-ns#"
   xmlns:svg="http://www.w3.org/2000/svg"
   xmlns="http://www.w3.org/2000/svg"
   xmlns:sodipodi="http://sodipodi.sourceforge.net/DTD/sodipodi-0.dtd"
   xmlns:inkscape="http://www.inkscape.org/namespaces/inkscape"
   width="400"
   height="76.25985"
   viewBox="0 0 400 76.25985"
   alt="Gridsome.org"
   class="logo__svg"
   version="1.1"
   id="svg22"
   sodipodi:docname="gridsome.svg"
   style="fill:none"
   inkscape:version="0.92.3 (2405546, 2018-03-11)">
  <metadata
     id="metadata26">
    <rdf:RDF>
      <cc:Work
         rdf:about="">
        <dc:format>image/svg+xml</dc:format>
        <dc:type
           rdf:resource="http://purl.org/dc/dcmitype/StillImage" />
        <dc:title></dc:title>
      </cc:Work>
    </rdf:RDF>
  </metadata>
  <sodipodi:namedview
     pagecolor="#ffffff"
     bordercolor="#666666"
     borderopacity="1"
     objecttolerance="10"
     gridtolerance="10"
     guidetolerance="10"
     inkscape:pageopacity="0"
     inkscape:pageshadow="2"
     inkscape:window-width="1535"
     inkscape:window-height="876"
     id="namedview24"
     showgrid="false"
     fit-margin-top="0"
     fit-margin-left="0"
     fit-margin-right="0"
     fit-margin-bottom="0"
     inkscape:zoom="1.3294543"
     inkscape:cx="164.54013"
     inkscape:cy="131.9262"
     inkscape:window-x="65"
     inkscape:window-y="24"
     inkscape:window-maximized="1"
     inkscape:current-layer="svg22" />
  <path
     d="m 69.177148,31.556647 a 7.0168675,7.0168675 0 0 1 7.257513,6.347755 C 77.811035,55.688684 61.502908,75.612362 38.524208,76.249192 19.158123,76.724613 0.00627133,61.252875 0.00627133,37.854513 c 0,-3.685984 3.05208797,-6.676443 6.73513637,-6.676443 a 6.6735076,6.6735076 0 0 1 6.6735073,6.676443 c 0,15.389566 12.396173,25.349937 24.780606,25.044729 15.245766,-0.422597 25.156248,-13.596465 24.639741,-24.355075 a 6.6735076,6.6735076 0 0 1 6.341886,-6.984586 z"
     id="path2"
     style="fill:url(#gridsome-logo_svg__paint0_linear);stroke-width:2.93470001"
     inkscape:connector-curvature="0" />
  <path
     d="m 52.516857,38.373954 a 6.8642631,6.8642631 0 0 1 6.890675,-6.83785 h 10.039609 c 3.806305,0 6.98752,3.060892 6.98752,6.83785 0,3.774024 -3.181215,6.834916 -6.984586,6.834916 H 59.404598 a 6.8642631,6.8642631 0 0 1 -6.890676,-6.83785 z m -21.07408,0.0088 a 6.8466549,6.8466549 0 1 1 13.690375,0 6.8466549,6.8466549 0 0 1 -13.690375,0 z"
     id="path4"
     inkscape:connector-curvature="0"
     style="fill:#00a672;stroke-width:2.93470001" />
  <path
     d="M 44.939462,6.4003986 A 6.6735076,6.6735076 0 0 1 38.55062,13.346834 C 22.65922,14.007141 12.960037,26.473746 13.429589,38.309391 a 6.6265524,6.6265524 0 0 1 -6.338952,6.93763 C 3.4105233,45.393756 0.17354923,42.420905 0.02681423,38.734923 -0.74794655,19.448075 15.345948,0.3783946 37.995962,0.0056876 a 6.6735076,6.6735076 0 0 1 6.9435,6.397646 z"
     id="path6"
     inkscape:connector-curvature="0"
     style="clip-rule:evenodd;fill:#00a672;fill-rule:evenodd;stroke-width:2.93470001" />
  <g
     clip-path="url(#gridsome-logo_svg__clip0)"
     id="g10"
     style="fill:#313131"
     transform="matrix(2.9346999,0,0,2.9346999,-0.01427157,-0.0530064)">
    <path
       d="m 43.229,14.608 h 4.386 a 6.876,6.876 0 0 1 -1.05,2.232 5.071,5.071 0 0 1 -1.82,1.565 c -0.752,0.393 -1.665,0.59 -2.742,0.59 -1.178,0 -2.246,-0.274 -3.203,-0.821 a 5.962,5.962 0 0 1 -2.23,-2.283 c -0.546,-0.992 -0.82,-2.138 -0.82,-3.438 0,-1.317 0.274,-2.454 0.82,-3.412 0.565,-0.975 1.316,-1.727 2.256,-2.257 0.956,-0.53 2.016,-0.796 3.177,-0.796 1.247,0 2.306,0.257 3.178,0.77 a 5.563,5.563 0 0 1 2.075,2.052 l 2.46,-1.667 A 8.236,8.236 0 0 0 46.565,4.218 c -1.299,-0.701 -2.82,-1.052 -4.562,-1.052 -1.35,0 -2.605,0.231 -3.767,0.693 a 8.958,8.958 0 0 0 -2.998,1.898 8.857,8.857 0 0 0 -1.973,2.95 c -0.461,1.13 -0.692,2.378 -0.692,3.746 0,1.368 0.23,2.625 0.692,3.771 a 8.818,8.818 0 0 0 1.948,2.976 9.09,9.09 0 0 0 2.998,1.95 c 1.144,0.445 2.391,0.667 3.741,0.667 1.435,0 2.708,-0.257 3.818,-0.77 a 8.118,8.118 0 0 0 2.793,-2.155 9.284,9.284 0 0 0 1.691,-3.104 c 0.376,-1.18 0.547,-2.428 0.513,-3.745 h -7.172 z m 15.867,-2.001 1.358,-2.36 A 2.37,2.37 0 0 0 59.48,9.58 3.494,3.494 0 0 0 58.276,9.375 c -0.495,0 -0.982,0.154 -1.46,0.461 -0.479,0.291 -0.889,0.702 -1.23,1.232 V 9.63 h -2.742 v 11.801 h 2.742 v -6.644 c 0,-0.856 0.153,-1.54 0.46,-2.053 0.308,-0.513 0.804,-0.77 1.487,-0.77 0.342,0 0.623,0.06 0.846,0.18 0.222,0.103 0.46,0.257 0.717,0.462 z m 2.745,-2.976 v 11.801 h 2.716 V 9.632 H 61.841 Z M 61.457,5.303 c 0,0.479 0.17,0.88 0.512,1.205 0.342,0.325 0.752,0.488 1.23,0.488 0.495,0 0.914,-0.163 1.256,-0.488 0.341,-0.325 0.512,-0.726 0.512,-1.205 0,-0.48 -0.17,-0.881 -0.512,-1.206 A 1.753,1.753 0 0 0 63.199,3.61 c -0.478,0 -0.888,0.162 -1.23,0.487 a 1.597,1.597 0 0 0 -0.512,1.206 z m 7.747,10.229 c 0,-1.18 0.35,-2.095 1.05,-2.745 0.701,-0.667 1.53,-1 2.486,-1 0.53,0 1.051,0.144 1.564,0.435 0.512,0.291 0.94,0.719 1.28,1.283 0.343,0.547 0.513,1.223 0.513,2.027 0,0.803 -0.17,1.488 -0.512,2.052 a 3.601,3.601 0 0 1 -1.281,1.257 c -0.513,0.29 -1.034,0.436 -1.564,0.436 a 3.532,3.532 0 0 1 -2.485,-0.975 c -0.7,-0.667 -1.05,-1.59 -1.05,-2.77 z m -2.87,0 c 0,1.3 0.265,2.411 0.795,3.335 a 5.64,5.64 0 0 0 2.1,2.103 5.81,5.81 0 0 0 2.845,0.719 c 0.854,0 1.623,-0.189 2.306,-0.565 0.7,-0.393 1.273,-0.94 1.717,-1.642 v 1.95 H 78.89 V 2.264 h -2.793 v 9.317 A 4.573,4.573 0 0 0 74.38,9.965 C 73.697,9.571 72.928,9.375 72.074,9.375 a 5.652,5.652 0 0 0 -2.844,0.744 c -0.871,0.479 -1.572,1.18 -2.101,2.103 -0.53,0.907 -0.795,2.01 -0.795,3.31 z m 15.702,1.641 -1.615,1.565 a 6.98,6.98 0 0 0 2.178,2.18 c 0.923,0.582 1.957,0.873 3.101,0.873 1.247,0 2.264,-0.3 3.05,-0.898 0.802,-0.615 1.204,-1.547 1.204,-2.796 0,-0.701 -0.154,-1.274 -0.461,-1.719 A 3.742,3.742 0 0 0 88.288,15.275 9.838,9.838 0 0 0 86.7,14.48 18.46,18.46 0 0 0 85.341,13.967 4.414,4.414 0 0 1 84.24,13.428 c -0.29,-0.205 -0.436,-0.47 -0.436,-0.795 0,-0.36 0.137,-0.616 0.41,-0.77 0.29,-0.17 0.675,-0.256 1.153,-0.256 0.478,0 0.974,0.136 1.486,0.41 0.53,0.274 0.991,0.624 1.384,1.052 l 1.538,-1.59 C 89.33,10.879 88.698,10.384 87.878,9.99 a 5.713,5.713 0 0 0 -2.64,-0.615 c -0.7,0 -1.357,0.128 -1.972,0.384 -0.615,0.257 -1.11,0.625 -1.487,1.104 -0.375,0.479 -0.563,1.06 -0.563,1.744 0,0.736 0.162,1.334 0.487,1.796 0.341,0.444 0.768,0.804 1.28,1.077 a 16.84,16.84 0 0 0 1.59,0.744 c 0.683,0.257 1.28,0.53 1.793,0.821 0.53,0.29 0.795,0.693 0.795,1.206 0,0.393 -0.145,0.693 -0.436,0.898 -0.273,0.188 -0.657,0.282 -1.153,0.282 -0.513,0 -1.093,-0.205 -1.743,-0.616 a 8.882,8.882 0 0 1 -1.793,-1.642 z m 11.919,-1.641 c 0,-1.112 0.334,-2.01 1,-2.694 0.683,-0.684 1.52,-1.026 2.511,-1.026 1.008,0 1.845,0.342 2.511,1.026 0.666,0.684 1,1.582 1,2.694 0,1.094 -0.334,1.992 -1,2.693 -0.666,0.684 -1.503,1.026 -2.511,1.026 -0.99,0 -1.828,-0.342 -2.511,-1.026 -0.666,-0.701 -1,-1.599 -1,-2.693 z m -2.844,0 c 0,1.214 0.273,2.283 0.82,3.206 a 6.074,6.074 0 0 0 2.28,2.18 c 0.974,0.514 2.06,0.77 3.255,0.77 1.213,0 2.298,-0.256 3.254,-0.77 a 5.876,5.876 0 0 0 2.255,-2.18 c 0.564,-0.923 0.846,-1.992 0.846,-3.206 0,-1.215 -0.282,-2.284 -0.846,-3.207 A 5.693,5.693 0 0 0 100.72,10.17 C 99.764,9.64 98.679,9.375 97.466,9.375 c -1.196,0 -2.28,0.265 -3.254,0.795 a 5.881,5.881 0 0 0 -2.281,2.155 c -0.547,0.923 -0.82,1.992 -0.82,3.207 z m 31.198,-1.591 c 0,-1.488 -0.308,-2.617 -0.923,-3.386 -0.615,-0.787 -1.563,-1.18 -2.844,-1.18 -0.786,0 -1.503,0.188 -2.152,0.564 -0.65,0.36 -1.171,0.864 -1.564,1.514 -0.529,-1.386 -1.657,-2.078 -3.382,-2.078 -0.769,0 -1.435,0.18 -1.999,0.538 -0.547,0.36 -0.982,0.838 -1.307,1.437 V 9.631 h -2.716 v 11.801 h 2.716 v -7.183 c 0,-0.787 0.197,-1.42 0.59,-1.899 0.41,-0.495 0.99,-0.743 1.742,-0.743 0.718,0 1.222,0.23 1.512,0.692 0.29,0.445 0.436,1.095 0.436,1.95 v 7.183 h 2.793 v -7.183 c 0,-0.787 0.196,-1.42 0.589,-1.899 0.41,-0.495 0.991,-0.743 1.743,-0.743 0.717,0 1.221,0.23 1.512,0.692 0.307,0.445 0.461,1.095 0.461,1.95 v 7.183 h 2.793 v -7.49 z m 4.54,2.232 h 9.405 c 0.017,-0.137 0.025,-0.274 0.025,-0.41 0.017,-0.137 0.026,-0.257 0.026,-0.36 0,-1.864 -0.786,-3.335 -1.845,-4.412 -1.042,-1.078 -2.477,-1.616 -4.305,-1.616 -1.691,0 -3.067,0.453 -4.126,1.36 -1.042,0.906 -1.682,2.086 -1.922,3.54 a 7.604,7.604 0 0 0 -0.102,1.257 c 0,1.18 0.248,2.24 0.743,3.18 a 5.485,5.485 0 0 0 2.101,2.181 c 0.906,0.53 1.965,0.796 3.178,0.796 1.469,0 2.673,-0.291 3.613,-0.873 0.957,-0.581 1.981,-1.35 2.562,-2.309 l -2.665,-0.974 a 3.9,3.9 0 0 1 -1.358,1.385 c -0.546,0.325 -1.221,0.487 -2.024,0.487 -0.906,0 -1.657,-0.265 -2.255,-0.795 -0.598,-0.547 -0.948,-1.36 -1.051,-2.437 z m 0.052,-1.924 c 0.119,-0.872 0.478,-1.548 1.076,-2.027 0.598,-0.496 1.315,-0.744 2.152,-0.744 0.889,0 1.572,0.248 2.05,0.744 0.479,0.496 0.769,1.172 0.872,2.027 z"
       id="path8"
       inkscape:connector-curvature="0" />
  </g>
  <defs
     id="defs20">
    <linearGradient
       id="gridsome-logo_svg__paint0_linear"
       x1="14.071"
       y1="26.849001"
       x2="14.071"
       y2="12.819"
       gradientUnits="userSpaceOnUse"
       gradientTransform="matrix(2.9346999,0,0,2.9346999,-0.01427157,-0.0530064)">
      <stop
         stop-color="#007A55"
         id="stop12" />
      <stop
         offset="1"
         stop-color="#005037"
         id="stop14" />
    </linearGradient>
    <clipPath
       id="gridsome-logo_svg__clip0">
      <path
         transform="translate(32.573,2.337)"
         d="M 0,0 H 104.427 V 19.443 H 0 Z"
         id="path17"
         inkscape:connector-curvature="0"
         style="fill:#ffffff" />
    </clipPath>
  </defs>
</svg>
