<?xml version="1.0" encoding="UTF-8" standalone="no"?>
<svg
   xmlns:dc="http://purl.org/dc/elements/1.1/"
   xmlns:cc="http://creativecommons.org/ns#"
   xmlns:rdf="http://www.w3.org/1999/02/22-rdf-syntax-ns#"
   xmlns:svg="http://www.w3.org/2000/svg"
   xmlns="http://www.w3.org/2000/svg"
   xmlns:sodipodi="http://sodipodi.sourceforge.net/DTD/sodipodi-0.dtd"
   xmlns:inkscape="http://www.inkscape.org/namespaces/inkscape"
   width="400"
   height="163.25983"
   viewBox="0 0 81.92 33.419494"
   preserveAspectRatio="xMidYMid"
   version="1.1"
   id="svg47"
   sodipodi:docname="jekyll.svg"
   inkscape:version="0.92.3 (2405546, 2018-03-11)">
  <metadata
     id="metadata51">
    <rdf:RDF>
      <cc:Work
         rdf:about="">
        <dc:format>image/svg+xml</dc:format>
        <dc:type
           rdf:resource="http://purl.org/dc/dcmitype/StillImage" />
        <dc:title></dc:title>
      </cc:Work>
    </rdf:RDF>
  </metadata>
  <sodipodi:namedview
     pagecolor="#ffffff"
     bordercolor="#666666"
     borderopacity="1"
     objecttolerance="10"
     gridtolerance="10"
     guidetolerance="10"
     inkscape:pageopacity="0"
     inkscape:pageshadow="2"
     inkscape:window-width="1535"
     inkscape:window-height="876"
     id="namedview49"
     showgrid="false"
     fit-margin-top="0"
     fit-margin-left="0"
     fit-margin-right="0"
     fit-margin-bottom="0"
     inkscape:zoom="1.6485"
     inkscape:cx="146.70571"
     inkscape:cy="52.280533"
     inkscape:window-x="65"
     inkscape:window-y="24"
     inkscape:window-maximized="1"
     inkscape:current-layer="svg47" />
  <defs
     id="defs19">
    <linearGradient
       x1="37.163792"
       y1="71.070084"
       x2="106.31684"
       y2="85.818069"
       id="a"
       gradientTransform="matrix(0.11938172,0,0,0.21526299,63.190393,-0.05754564)"
       gradientUnits="userSpaceOnUse">
      <stop
         stop-color="#919191"
         offset="0%"
         id="stop2" />
      <stop
         stop-color="#FFF"
         offset="100%"
         id="stop4" />
    </linearGradient>
    <linearGradient
       x1="33.756042"
       y1="100.28227"
       x2="73.691307"
       y2="109.62714"
       id="b"
       gradientTransform="matrix(0.12505119,0,0,0.20550357,63.190393,-0.05754564)"
       gradientUnits="userSpaceOnUse">
      <stop
         stop-color="#900"
         offset="0%"
         id="stop7" />
      <stop
         stop-color="#E80000"
         offset="100%"
         id="stop9" />
    </linearGradient>
    <linearGradient
       x1="133.52087"
       y1="327.56516"
       x2="133.52087"
       y2="60.939255"
       id="c"
       gradientTransform="matrix(0.26157762,0,0,0.09824413,-0.00759679,-0.05754564)"
       gradientUnits="userSpaceOnUse">
      <stop
         stop-color="#1A1A1A"
         offset="0%"
         id="stop12" />
      <stop
         stop-color="#4A4A4C"
         offset="40.26%"
         id="stop14" />
      <stop
         stop-color="#333"
         offset="100%"
         id="stop16" />
    </linearGradient>
  </defs>
  <path
     d="m 73.622077,0.63049436 c -0.01603,0.064 -0.01603,0.12793 0,0.19189 0,0 0.207919,1.36005004 -0.03206,1.96793004 l -9.8557,25.6472696 c -0.70391,1.88794 0.239981,3.9838 2.127921,4.7039 1.88794,0.71978 3.98396,-0.20808 4.735962,-2.07999 L 80.453899,5.4142344 c 0.191888,-0.496 1.295925,-1.47195 1.295925,-1.47195 0.04809,-0.0481 0.09602,-0.096 0.127926,-0.14395 v -0.016 c 0,-0.016 0.01603,-0.016 0.01603,-0.0321 0.256011,-0.65581 -1.391949,-1.90381 -3.663825,-2.78373004 -2.272037,-0.88009 -4.335835,-1.05611 -4.591846,-0.3841 0,0 -0.01603,0.016 -0.01603,0.0481 z"
     id="path21"
     inkscape:connector-curvature="0"
     style="opacity:0.1;stroke-width:0.16030741" />
  <path
     d="m 73.334005,0.40638436 c -0.01603,0.0641 -0.01603,0.12809 0,0.19205 0,0 0.208079,1.35989004 -0.03206,1.96793004 L 63.446406,28.213634 c -0.703749,1.88794 0.240141,3.9838 2.128081,4.70374 1.88794,0.71994 3.9838,-0.20792 4.735802,-2.07983 L 80.165988,5.1902844 c 0.192048,-0.496 1.295925,-1.47195 1.295925,-1.47195 0.04809,-0.0481 0.09619,-0.096 0.128086,-0.14395 v -0.016 c 0,-0.016 0.01603,-0.016 0.01603,-0.0321 0.256011,-0.65598 -1.39195,-1.90382 -3.663987,-2.78390004 -2.272036,-0.87993 -4.335994,-1.05595 -4.592005,-0.38394 0,0.016 0,0.0321 -0.01603,0.0481 z"
     id="path23"
     style="fill:url(#a);stroke-width:0.16030741"
     inkscape:connector-curvature="0" />
  <path
     d="m 76.438037,12.006074 -7.119893,18.49546 c -0.527892,1.32799 -2.047927,2.01587 -3.407815,1.48798 -1.360048,-0.52806 -2.079989,-2.07999 -1.583837,-3.40798 l 4.543753,-11.82363 c 0,0 0.559954,-0.91199 1.680022,-1.56781 1.119907,-0.65614 2.031896,-0.51218 3.263859,-1.0561 1.247833,-0.54393 2.623911,-2.12792 2.623911,-2.12792 z"
     id="path25"
     style="fill:url(#b);stroke-width:0.16030741"
     inkscape:connector-curvature="0" />
  <path
     d="m 79.890578,2.9913444 c 0.141872,-0.37015 -0.878966,-1.10869 -2.279892,-1.64956 -1.401087,-0.54088004 -2.651805,-0.67939004 -2.793517,-0.3094 -0.141872,0.37015 0.878966,1.10853 2.279892,1.64957 1.401087,0.54087 2.651805,0.67938 2.793517,0.30939 z"
     id="path27"
     inkscape:connector-curvature="0"
     style="fill:#333333;stroke-width:0.16030741" />
  <path
     d="m 73.267798,0.59651436 c 0,0 0.206636,1.35620004 -0.0319,1.96248004 L 63.444642,28.133954 c -0.699261,1.88249 0.238537,3.97258 2.114134,4.6906 0.31789,0.1276 0.65165,0.20728 0.98541,0.22331 a 3.6926812,3.6926812 0 0 1 -1.223947,-4.21192 l 9.60065,-25.0643796 c 0,0 -1.31933,-1.2286 -1.65309,-3.17505004 z"
     id="path29"
     inkscape:connector-curvature="0"
     style="opacity:0.3;fill:#ffffff;stroke-width:0.16030741" />
  <g
     transform="matrix(0.16030741,0,0,0.16030741,67.323118,16.694584)"
     id="g41"
     style="opacity:0.5;fill:#ffffff">
    <ellipse
       cx="17.451"
       cy="2.4879999"
       rx="1.785"
       ry="1.791"
       id="ellipse31" />
    <ellipse
       cx="29.052"
       cy="15.327"
       rx="2.677"
       ry="2.687"
       id="ellipse33" />
    <ellipse
       cx="11.303"
       cy="30.653"
       rx="5.0570002"
       ry="5.0760002"
       id="ellipse35" />
    <ellipse
       cx="3.1730001"
       cy="40.008999"
       rx="2.677"
       ry="2.687"
       id="ellipse37" />
    <ellipse
       cx="13.782"
       cy="59.912998"
       rx="1.785"
       ry="1.791"
       id="ellipse39" />
  </g>
  <path
     d="m 19.303835,15.513914 c 0.431868,0.35108 1.215932,0.14364 1.743824,-0.43074 0.560114,-0.60629 0.640108,-1.38794 0.208079,-1.73902 -0.432028,-0.35107 -1.215931,-0.14363 -1.743984,0.46265 -0.559954,0.60628 -0.655978,1.37223 -0.207919,1.70727 z m -1.295925,1.13274 c -0.112215,0 -0.320134,0.20743 -0.144116,0.28727 0.23998,0.0797 0.352035,0.28711 0.352035,0.57438 -0.207919,1.19653 -1.696053,2.55273 -2.271877,3.01538 -0.144116,0.14347 0.06396,0.46265 0.207919,0.35107 0.319974,-0.25537 0.991982,-0.78182 1.535905,-1.4838 -0.895958,1.99422 -2.655813,4.57886 -3.327821,5.48828 -2.623912,3.62167 -6.6078716,6.95606 -9.3436779,6.95606 -2.1920435,0 -4.04776211,-1.4838 -4.44788937,-3.6534 -0.0320615,-0.2395 -0.35203507,-0.28728 -0.28807241,0.0317 0.49599112,2.98348 2.79992918,4.14811 5.58382768,4.14811 3.0559402,0 6.639933,-2.20166 8.623737,-4.46713 3.199896,-3.65356 5.263854,-7.86564 4.719931,-10.24284 -0.223949,-0.87736 -0.848026,-1.02116 -1.199901,-1.00512 z m 19.663307,7.96134 c 0.848026,-0.20744 1.535905,-0.67008 1.535905,-1.40397 0,-0.0798 -0.143956,-0.0798 -0.143956,0 0,0.43075 -0.495991,0.79769 -1.055945,0.87752 -1.311955,0.20728 -3.903966,-1.3243 -5.119898,-2.90381 1.311956,0.49455 3.98396,-0.2233 5.247824,-1.13273 1.167999,-0.84562 1.631929,-1.77091 1.712083,-2.52083 0.143956,-1.24447 -1.216092,-1.9782 -3.120063,-1.24447 -1.215932,0.49471 -2.671844,1.56364 -4.191718,3.57389 1.599867,-2.63256 4.751832,-6.94018 7.839673,-9.68433 3.75985,-3.3343896 5.935863,-2.6963696 2.559949,0.84563 -1.391949,1.45174 -4.015861,3.33439 -5.823968,4.14811 -0.559794,0.23934 -0.287912,0.55835 0.112215,0.38281 1.919842,-0.84546 4.479791,-2.58463 6.031727,-4.03654 4.575814,-4.3872896 0.751841,-7.6899396 -4.303934,-3.0471196 -3.439876,3.1588596 -5.679691,6.4615096 -7.631754,10.7532596 -0.671849,0.81356 -1.16784,1.48365 -1.775886,1.99423 -0.08015,0.0638 -0.127925,0.1276 -0.176017,0.19156 -1.680022,1.43588 -4.319804,3.38233 -5.967764,3.3982 -1.168,0.0321 -1.663991,-0.84562 -1.455912,-1.97819 0.319973,-1.77108 2.159821,-3.86117 3.727788,-4.57903 2.031897,-0.92545 3.231798,0.87753 0.559954,2.31324 -1.023883,0.52661 -2.239815,0.81372 -2.735806,0.81372 -0.575985,0 -0.528053,0.23934 -0.03206,0.25537 0.815965,0.0319 2.127921,-0.31901 2.991978,-0.71802 2.735806,-1.3081 2.911824,-3.74927 -0.06412,-3.82894 -3.231798,-0.11173 -7.103703,2.63241 -7.071641,6.09457 0.03206,1.56348 1.279894,2.4091 2.991817,2.4091 2.863892,-0.0321 5.40781,-2.20182 7.50383,-4.11622 0.303943,-0.25536 0.591855,-0.5266 0.879927,-0.81372 -0.735971,1.85075 -1.104037,3.57374 -0.92802,4.85011 0.112055,0.92545 0.639948,1.3562 1.055945,1.70727 0.08015,0.0636 0.256011,0 0.144117,-0.1757 -0.608046,-0.71785 -0.432029,-2.87174 0.399967,-4.96167 0.70391,1.40397 3.439876,3.17489 6.303768,2.5367 z m -3.439876,-6.04679 c 3.344012,-2.98332 4.655808,-0.31902 2.527887,1.30827 -1.104037,0.84562 -3.29592,1.4838 -3.983799,1.06893 l -0.144117,-0.0797 c -0.07999,-0.14363 -0.176017,-0.28727 -0.23998,-0.43074 0.559954,-0.68612 1.200061,-1.2924 1.840009,-1.86678 z m 18.591331,-3.3982 c 1.344017,0.14348 0.783903,-1.48381 -0.575985,-1.06893 -0.607885,0.17538 -1.199901,1.34017 -1.631929,2.3453 -1.343857,1.99422 -3.583833,4.72249 -5.151799,6.15837 -1.39195,1.19653 -2.671844,1.5157 -1.104037,-0.71802 0.640107,-0.89339 1.456072,-1.85075 1.920001,-2.80794 1.104038,-2.4091 -1.247993,-3.47803 -3.151964,-2.02629 -1.103877,0.84562 -2.59185,2.58464 -3.75985,3.54199 -0.319973,0.25521 -0.23998,0.63803 0.08015,0.38282 0.927859,-0.74976 2.559789,-2.47291 3.967769,-3.47803 1.167999,-0.8934 1.631929,-0.31902 0.95992,0.43074 -0.927859,1.06893 -2.559949,2.93571 -2.975786,4.11622 -0.575985,1.77107 0.111894,2.55273 1.279894,2.55273 1.599868,0 3.9838,-2.48877 5.583828,-4.46713 0.527892,-0.67008 1.103877,-1.4519 1.599868,-2.20182 -1.391949,2.69637 -2.847861,5.42448 -4.655808,7.89755 -2.559949,3.47803 -5.759845,6.09456 -8.799755,6.09456 -2.191883,0 -4.079823,-1.4838 -4.47979,-3.65356 -0.03206,-0.23934 -0.319974,-0.28727 -0.288073,0.0319 0.495991,2.98332 2.799929,4.14811 5.583828,4.14811 3.05594,0 5.999825,-1.77091 8.063783,-3.94067 4.159977,-4.38762 4.655808,-9.31739 5.935863,-12.07756 0.607886,-1.26034 1.151969,-1.30811 1.599868,-1.26034 z m 16.9275,-4.21224 c 0.608046,-1.0370296 0.575985,-1.8505896 -0.848026,-1.8505896 -1.071975,0.0319 -3.023878,0.78166 -3.935867,1.4836496 -0.207919,0.20744 -0.111895,0.31901 0.144116,0.20744 0.175857,-0.0638 0.383936,-0.17554 0.575985,-0.25521 1.023883,-0.5585096 0.607885,0.60628 0.383936,1.03703 -1.215932,2.12199 -3.375914,5.10531 -4.511852,6.58911 a 22.551565,22.551565 0 0 1 -1.743984,2.07406 c -1.088007,1.03719 -3.247829,2.87191 -4.895789,3.47803 -5.295915,1.97835 1.455912,-7.01986 2.015866,-7.75375 1.247993,-1.56348 4.047762,-4.29175 4.895788,-5.66382 0.608046,-1.0371896 0.576145,-1.8507496 -0.848026,-1.8507496 -1.071815,0.0321 -3.023718,0.78182 -3.935707,1.4838 -0.208079,0.2074396 -0.112055,0.3190196 0.143956,0.2074396 0.176017,-0.0638 0.383936,-0.1755296 0.575984,-0.2553696 1.024044,-0.55835 0.608046,0.6062896 0.383937,1.0371896 -1.215932,2.12183 -3.375754,5.10531 -4.511852,6.58912 -0.92786,1.24446 -2.063798,2.48877 -2.943886,3.19076 -0.351874,0.28727 -0.143956,0.55851 0.208079,0.31917 0.319974,-0.20744 0.783904,-0.67009 1.311956,-1.21257 -0.960081,1.91455 -1.743984,4.61092 0.783903,4.92994 2.159982,0.28711 4.719931,-1.89852 6.383762,-3.52597 l 0.592015,-0.59025 0.143956,-0.14363 c -0.95992,1.91455 -1.743824,4.61092 0.783904,4.92993 2.768028,0.38298 6.207904,-3.33439 7.536051,-4.70662 0.255851,-0.25521 0.175857,-0.70199 -0.256171,-0.25521 -0.783904,0.81372 -3.439877,3.22282 -5.359718,3.94067 -5.295916,1.97836 1.455912,-7.01986 2.015865,-7.75375 1.264024,-1.59537 4.063793,-4.32365 4.911819,-5.67969 z"
     id="path43"
     inkscape:connector-curvature="0"
     style="opacity:0.1;stroke-width:0.16030741" />
  <path
     d="m 19.015763,15.242674 c 0.432028,0.35108 1.215932,0.14364 1.743984,-0.43074 0.559954,-0.60629 0.639947,-1.38794 0.207919,-1.73902 -0.431868,-0.35107 -1.215932,-0.14363 -1.743824,0.46265 -0.559954,0.60628 -0.640108,1.3562 -0.208079,1.70727 z m -1.279895,1.1329 c -0.112054,0 -0.319973,0.20727 -0.143956,0.28711 0.239981,0.0798 0.351875,0.28711 0.351875,0.57438 -0.207919,1.19653 -1.696052,2.55273 -2.271876,3.01538 -0.143956,0.14364 0.06412,0.46265 0.207918,0.35107 0.320134,-0.25537 0.991983,-0.78182 1.536066,-1.4838 -0.896119,1.99422 -2.655973,4.57886 -3.327982,5.48828 -2.623912,3.62167 -6.6078713,6.95606 -9.3436775,6.95606 -2.1918833,0 -4.04776215,-1.4838 -4.44788944,-3.6534 -0.0320615,-0.2395 -0.35187476,-0.28728 -0.28791211,0.0317 0.49599113,2.98348 2.79992925,4.14811 5.58382775,4.14811 3.0559401,0 6.6397723,-2.20166 8.6237373,-4.46713 3.199736,-3.65356 5.263854,-7.86548 4.71977,-10.24268 -0.23998,-0.89355 -0.848026,-1.03719 -1.199901,-1.00512 z m 19.647277,7.96118 c 0.848026,-0.20744 1.536065,-0.67008 1.536065,-1.40397 0,-0.0798 -0.144116,-0.0798 -0.144116,0 0,0.43075 -0.495831,0.79769 -1.055945,0.87752 -1.311956,0.20728 -3.903806,-1.32414 -5.119738,-2.90381 1.311956,0.49471 3.9838,-0.2233 5.247824,-1.13273 1.167999,-0.84562 1.631929,-1.77091 1.711922,-2.52083 0.143956,-1.24447 -1.215931,-1.9782 -3.119902,-1.24447 -1.215932,0.49471 -2.672004,1.56364 -4.191879,3.57389 1.599868,-2.63256 4.751832,-6.94018 7.839834,-9.6843296 3.75985,-3.33439 5.935702,-2.69637 2.559789,0.8456296 -1.39195,1.45174 -4.015701,3.33439 -5.823808,4.14811 -0.559954,0.23934 -0.287912,0.55835 0.112055,0.38281 1.920002,-0.84546 4.47979,-2.58447 6.031726,-4.03654 4.575975,-4.3872896 0.752002,-7.6899396 -4.303773,-3.0471196 -3.439876,3.1429896 -5.679691,6.4615096 -7.631755,10.7532596 -0.672008,0.81372 -1.167999,1.48381 -1.776045,1.99423 -0.07999,0.0638 -0.127926,0.12776 -0.175858,0.19156 -1.680021,1.43588 -4.319964,3.38233 -5.967924,3.3982 -1.167839,0.0321 -1.663991,-0.84562 -1.455912,-1.97819 0.319974,-1.77108 2.159982,-3.86117 3.727949,-4.57903 2.031896,-0.92529 3.231797,0.87753 0.559954,2.31324 -1.024044,0.52661 -2.239976,0.81388 -2.735967,0.81388 -0.575984,0 -0.527892,0.23918 -0.03206,0.25521 0.815965,0.0319 2.128081,-0.31901 2.991977,-0.71802 2.735967,-1.3081 2.911984,-3.74927 -0.06412,-3.82894 -3.231797,-0.11173 -7.103702,2.63241 -7.07164,6.09457 0.03206,1.56348 1.279894,2.4091 2.991977,2.4091 2.863892,-0.0321 5.40781,-2.20166 7.503669,-4.11622 0.303943,-0.25536 0.592016,-0.52661 0.880088,-0.81372 -0.736132,1.85075 -1.104037,3.57374 -0.92818,4.85011 0.112215,0.92545 0.640108,1.3562 1.056105,1.70727 0.07999,0.0636 0.256011,0 0.143956,-0.17554 -0.607885,-0.71801 -0.432028,-2.8719 0.399967,-4.96183 0.719941,1.40397 3.455907,3.17489 6.303769,2.5367 z m -3.439877,-6.06282 c 3.344013,-2.98333 4.655969,-0.31902 2.528048,1.30842 -1.104037,0.84563 -3.29592,1.48381 -3.98396,1.06893 l -0.143956,-0.0798 c -0.08015,-0.14347 -0.176017,-0.28711 -0.23998,-0.43074 0.559954,-0.67009 1.199901,-1.29224 1.839848,-1.86662 z m 18.591492,-3.38201 c 1.343857,0.14364 0.783903,-1.48381 -0.575985,-1.06893 -0.608046,0.17538 -1.200061,1.34017 -1.631929,2.3453 -1.344018,1.99422 -3.583993,4.72249 -5.151799,6.15837 -1.39211,1.19653 -2.672004,1.5157 -1.104038,-0.71802 0.639948,-0.89339 1.455912,-1.85059 1.920002,-2.80794 1.103877,-2.4091 -1.247993,-3.47803 -3.151964,-2.02629 -1.104037,0.84562 -2.59185,2.58464 -3.75985,3.54199 -0.319974,0.25521 -0.23998,0.63803 0.07999,0.38282 0.92802,-0.74976 2.559949,-2.47291 3.967769,-3.47803 1.168,-0.8934 1.63193,-0.31901 0.960081,0.43074 -0.928019,1.06909 -2.559949,2.93571 -2.975947,4.11638 -0.575984,1.77091 0.112055,2.55257 1.279895,2.55257 1.599868,0 3.98396,-2.48877 5.583827,-4.46712 0.528053,-0.67009 1.104038,-1.45191 1.599868,-2.20183 -1.391789,2.69637 -2.8477,5.42465 -4.655647,7.89755 -2.56011,3.47803 -5.759846,6.09456 -8.799755,6.09456 -2.191883,0 -4.079824,-1.4838 -4.479951,-3.65356 -0.03206,-0.23934 -0.319973,-0.28727 -0.287912,0.0319 0.495991,2.98332 2.799929,4.14811 5.583828,4.14811 3.05594,0 5.999825,-1.77091 8.063783,-3.94067 4.159817,-4.38762 4.655808,-9.31739 5.935702,-12.07756 0.608046,-1.26034 1.168,-1.32414 1.599868,-1.26034 z m 16.9275,-4.22811 c 0.607886,-1.0370296 0.575985,-1.8507496 -0.848026,-1.8507496 -1.071975,0.0321 -3.023878,0.78182 -3.935867,1.4838096 -0.208079,0.20744 -0.112055,0.31901 0.143956,0.20744 0.176017,-0.0638 0.383936,-0.17554 0.575984,-0.25537 1.024044,-0.5583496 0.608046,0.60628 0.383936,1.03719 -1.215931,2.12182 -3.375753,5.10531 -4.511852,6.58911 a 22.551565,22.551565 0 0 1 -1.743824,2.07406 c -1.088006,1.03703 -3.247828,2.87175 -4.895788,3.47803 -5.295915,1.97835 1.455912,-7.01986 2.015866,-7.75391 1.247993,-1.56348 4.047762,-4.29159 4.895788,-5.66366 0.608046,-1.0371896 0.575985,-1.8507496 -0.848026,-1.8507496 -1.071976,0.0319 -3.023879,0.78166 -3.935868,1.48364 -0.207918,0.20744 -0.111894,0.31918 0.144117,0.20744 0.175857,-0.0638 0.383936,-0.17537 0.575984,-0.25521 1.023884,-0.55835 0.607886,0.6062896 0.383937,1.0370296 -1.215932,2.12199 -3.375914,5.10547 -4.511853,6.58912 -0.928019,1.24446 -2.063957,2.48893 -2.943885,3.19092 -0.352035,0.28711 -0.143956,0.55835 0.207919,0.31901 0.319973,-0.20728 0.783903,-0.67009 1.311956,-1.21241 -0.959921,1.91455 -1.743985,4.61076 0.783903,4.92994 2.159982,0.28711 4.719931,-1.89868 6.383922,-3.52597 l 0.592015,-0.59041 0.143956,-0.14347 c -0.95992,1.91455 -1.743984,4.61076 0.783904,4.92993 2.768028,0.38282 6.207904,-3.33439 7.535891,-4.70662 0.25585,-0.25521 0.175857,-0.70199 -0.256011,-0.25521 -0.783904,0.81356 -3.439877,3.22266 -5.359879,3.94067 -5.295755,1.97836 1.455912,-7.01986 2.015866,-7.75391 1.280055,-1.59538 4.063793,-4.32349 4.911819,-5.67969 z"
     id="path45"
     style="fill:url(#c);stroke-width:0.16030741"
     inkscape:connector-curvature="0" />
</svg>
