<?xml version="1.0" encoding="UTF-8" standalone="no"?>
<!-- Created with Inkscape (http://www.inkscape.org/) -->
<svg xmlns:rdf="http://www.w3.org/1999/02/22-rdf-syntax-ns#" xmlns="http://www.w3.org/2000/svg" height="379.64mm" width="174.12mm" version="1.1" xmlns:cc="http://creativecommons.org/ns#" xmlns:xlink="http://www.w3.org/1999/xlink" viewBox="0 0 616.97762 1345.1709" xmlns:dc="http://purl.org/dc/elements/1.1/">
<defs>
<linearGradient id="linearGradient1106">
<stop style="stop-color:#cd2fe6" offset="0"/>
<stop style="stop-color:#e184f0" offset="1"/>
</linearGradient>
<linearGradient id="linearGradient1168-4" y2="178.96" gradientUnits="userSpaceOnUse" y1="179.1" gradientTransform="matrix(1.8487 0 0 1.8487 30.163 -159.47)" x2="11.419" x1="7.1645">
<stop style="stop-color:#ff8a49" offset="0"/>
<stop style="stop-color:#ffa777" offset="1"/>
</linearGradient>
<linearGradient id="linearGradient1182-1" y2="180.46" gradientUnits="userSpaceOnUse" y1="180.44" gradientTransform="matrix(1.8487 0 0 1.8487 30.163 -159.47)" x2="7.5344" x1="3.1181">
<stop style="stop-color:#9237ea" offset="0"/>
<stop style="stop-color:#ab66ef" offset="1"/>
</linearGradient>
<linearGradient id="linearGradient4300-3" y2="174.87" xlink:href="#linearGradient1106" gradientUnits="userSpaceOnUse" x2="24.645" gradientTransform="matrix(1.8487 0 0 1.8487 5.6701 -158.41)" y1="174.96" x1="16.321"/>
</defs>
<metadata>
<rdf:RDF>
<cc:Work rdf:about="">
<dc:format>image/svg+xml</dc:format>
<dc:type rdf:resource="http://purl.org/dc/dcmitype/StillImage"/>
<dc:title/>
</cc:Work>
</rdf:RDF>
</metadata>
<g transform="translate(-506.09 1565.9)">
<rect style="fill:#303030;display:none;fill-rule:evenodd" ry="20.49" height="660.01" width="1615.9" y="161.52" x="3.8468"/>
<circle cx="252.59" style="fill:#fff;display:none;fill-rule:evenodd" r="15.914" cy="659.1"/>
<path style="stroke:#3fd892;stroke-width:2.5;display:none;fill:none" d="m259.95 659.1-7.3652 4.2523-7.3652 4.2523v-8.5046-8.5046l7.3652 4.2523z"/>
<g transform="translate(-3.6428 -24)">
<rect style="stroke-width:.91914;fill:#bababa;fill-rule:evenodd" ry="17.164" height="398.49" width="452.07" y="-1541.9" x="592.19"/>
<rect style="stroke-width:.90754;fill:#e6e6e6;fill-rule:evenodd" ry="16.131" height="341.81" width="452.07" y="-1485.2" x="592.19"/>
<circle cx="634.66" cy="-1512.9" r="12.127" style="fill:#e86987;fill-rule:evenodd"/>
<circle cx="670.01" cy="-1512.9" r="12.127" style="fill:#ece971;fill-rule:evenodd"/>
<circle cx="705.35" cy="-1512.9" r="12.127" style="fill:#88ec78;fill-rule:evenodd"/>
<path d="m731.34-1512.9 9.3544-5.4008 9.3544-5.4008v10.802 10.802l-9.3544-5.4008z" style="fill:#fff;fill-rule:evenodd"/>
<path d="m785.39-1512.9-9.3544 5.4008-9.3544 5.4008v-10.802-10.802l9.3544 5.4008z" style="fill:#fff;fill-rule:evenodd"/>
<g style="stroke:#fff" transform="matrix(.68417 0 0 .68417 721.62 -1643.9)">
<path d="m117.88 178.06 26.639 26.639" style="stroke:#fff;stroke-width:5.3466;fill:none"/>
<path d="m144.52 178.06-26.639 26.639" style="stroke:#fff;stroke-width:5.3466;fill:none"/>
</g>
<rect style="fill-rule:evenodd;stroke-dashoffset:54.27;stroke:#fff;stroke-linecap:round;stroke-width:2.9465;fill:#fff" height="20.774" width="167.36" y="-1523.3" x="844.27"/>
<rect style="fill:#e6e6e6;fill-rule:evenodd" ry="0" height="82.53" width="452.07" y="-1487.2" x="592.19"/>
<rect style="fill-rule:evenodd;stroke-dashoffset:54.27;stroke:#bababa;stroke-linecap:round;stroke-width:2;fill:#fff" ry="3.6804" height="48.772" width="341.8" y="-1437.1" x="648.31"/>
<rect style="fill-rule:evenodd;stroke-dashoffset:54.27;stroke:#bababa;stroke-linecap:round;stroke-width:2;fill:#fff" ry="3.6804" height="48.772" width="341.8" y="-1368.3" x="648.31"/>
<rect style="fill-rule:evenodd;stroke-dashoffset:54.27;stroke:#bababa;stroke-linecap:round;stroke-width:2.5;fill:#fff" ry="24.386" height="48.772" width="120.32" y="-1226.3" x="648.31"/>
<g transform="translate(560.58 -1891.6)">
<rect style="fill-rule:evenodd;stroke-dashoffset:54.27;stroke:#bababa;stroke-linecap:round;stroke-width:2;fill:#fff" ry="3.6804" height="48.772" width="341.8" y="597.16" x="87.73"/>
<path d="m391.37 616.72 9.1639 9.2167 9.1639-9.2167" style="stroke-linejoin:round;stroke:#bababa;stroke-width:2.9132;fill:none"/>
</g>
</g>
<g transform="translate(-8.3745)">
<g transform="matrix(.7265 0 0 .63357 -70.412 -709.26)">
<path d="m1409.7-36.074a179.65 85.45 0 0 1 -179.13 85.449 179.65 85.45 0 0 1 -180.16 -84.961 179.65 85.45 0 0 1 178.11 -85.935 179.65 85.45 0 0 1 181.18 84.47" style="fill:#e6e6e6;fill-rule:evenodd"/>
<rect style="fill:#e6e6e6;fill-rule:evenodd" ry="0" height="104.67" width="360" y="-141.72" x="1049.7"/>
<path d="m1409.7-140.75a179.65 85.45 0 0 1 -179.13 85.449 179.65 85.45 0 0 1 -180.16 -84.961 179.65 85.45 0 0 1 178.11 -85.935 179.65 85.45 0 0 1 181.18 84.47" style="fill:#bababa;fill-rule:evenodd"/>
</g>
<g transform="matrix(.7265 0 0 .63357 -73.922 -680.29)">
<path d="m1414.5-216.73a179.65 85.45 0 0 1 -179.13 85.449 179.65 85.45 0 0 1 -180.16 -84.961 179.65 85.45 0 0 1 178.11 -85.935 179.65 85.45 0 0 1 181.18 84.47" style="fill:#e6e6e6;fill-rule:evenodd"/>
<rect style="fill:#e6e6e6;fill-rule:evenodd" ry="0" height="104.67" width="360" y="-322.38" x="1054.5"/>
<path d="m1414.5-321.4a179.65 85.45 0 0 1 -179.13 85.449 179.65 85.45 0 0 1 -180.16 -84.961 179.65 85.45 0 0 1 178.11 -85.935 179.65 85.45 0 0 1 181.18 84.47" style="fill:#bababa;fill-rule:evenodd"/>
</g>
<g transform="matrix(.7265 0 0 .63357 -73.922 -765.78)">
<path d="m1414.5-216.73a179.65 85.45 0 0 1 -179.13 85.449 179.65 85.45 0 0 1 -180.16 -84.961 179.65 85.45 0 0 1 178.11 -85.935 179.65 85.45 0 0 1 181.18 84.47" style="fill:#e6e6e6;fill-rule:evenodd"/>
<rect style="fill:#e6e6e6;fill-rule:evenodd" ry="0" height="104.67" width="360" y="-322.38" x="1054.5"/>
<path d="m1414.5-321.4a179.65 85.45 0 0 1 -179.13 85.449 179.65 85.45 0 0 1 -180.16 -84.961 179.65 85.45 0 0 1 178.11 -85.935 179.65 85.45 0 0 1 181.18 84.47" style="fill:#bababa;fill-rule:evenodd"/>
</g>
<g transform="matrix(6.8267 -1.2084 2.3498 3.5107 137.61 -1512.7)">
<rect style="fill:url(#linearGradient1168-4);fill-rule:evenodd" height="7.5939" width="15.162" y="167.08" x="35.883"/>
<rect style="fill:url(#linearGradient1182-1);fill-rule:evenodd" height="19.744" width="7.5939" y="159.48" x="35.857"/>
<rect style="fill:url(#linearGradient4300-3);fill-rule:evenodd" ry="0" height="7.6581" width="15.188" y="159.48" x="35.857"/>
<path style="fill-rule:evenodd;fill:url(#linearGradient4300-3)" d="m51.045 167.14-15.186 2.749-0.002-2.784z"/>
<path style="opacity:.194;fill-rule:evenodd" d="m51.045 167.14-15.188 5.469 0.0018-2.7201z"/>
</g>
</g>
<path style="stroke-linejoin:round;fill-rule:evenodd;stroke:#ff8b4c;stroke-width:8.093;fill:#ff8b4c" d="m814.58-1068-13.766-23.843-13.766-23.843h27.532 27.532l-13.766 23.843z"/>
<g transform="translate(-10.74)">
<path d="m921.84-495.23-18.931-19.991-18.931-19.991 26.778-6.399 26.778-6.399-7.8475 26.39z" style="stroke-linejoin:round;fill-rule:evenodd;stroke:#ff8b4c;stroke-width:8.093;fill:#ff8b4c"/>
<rect style="stroke-linejoin:round;fill-rule:evenodd;stroke-dashoffset:54.27;stroke:#ff8b4c;stroke-linecap:round;stroke-width:4.6;fill:#ff8b4c" transform="rotate(75.648)" ry="8.9515" height="17.903" width="107.42" y="-1023.7" x="-401.69"/>
<path d="m728.8-495.23 18.931-19.991 18.931-19.991-26.778-6.399-26.778-6.399 7.8475 26.39z" style="stroke-linejoin:round;fill-rule:evenodd;stroke:#ff8b4c;stroke-width:8.093;fill:#ff8b4c"/>
<rect style="stroke-linejoin:round;fill-rule:evenodd;stroke-dashoffset:54.27;stroke:#ff8b4c;stroke-linecap:round;stroke-width:4.6;fill:#ff8b4c" transform="matrix(-.24790 .96879 .96879 .24790 0 0)" ry="8.9515" height="17.903" width="107.42" y="575.43" x="-810.87"/>
</g>
<g transform="translate(-22.555)">
<g transform="translate(-327.97 -698.1)">
<path d="m1324.3 414.77h-10.685l-6.934-18.301h-35.352l-6.8204 18.301h-10.685l30.123-75.706h10.23l30.123 75.706zm-49.789-26.713h29.1l-14.55-39.444z" style="fill:#bababa"/>
<path d="m1383.8 361.23q0 5.4563-2.3871 9.8895-2.3872 4.3196-6.7067 7.3887-4.2058 3.0692-10.003 4.7742-5.7973 1.5914-12.504 1.5914h-5.2289v29.896h-10.458v-75.706h18.301q6.1382 0 11.367 1.3641 5.3425 1.3641 9.2074 4.2059 3.9786 2.7281 6.1384 6.934 2.2734 4.0922 2.2734 9.6622zm-10.458-0.11363q0-3.7512-1.4778-6.252-1.4777-2.6145-4.0921-4.2059-2.5009-1.7051-6.0246-2.3871-3.4103-0.79571-7.2751-0.79571h-7.5024v28.986h5.5699q4.547 0 8.2981-1.023 3.865-1.023 6.593-2.9555 2.8419-2.0461 4.3196-4.8879 1.5914-2.8418 1.5914-6.4793z" style="fill:#bababa"/>
<path d="m1405.3 414.77h-10.458v-75.706h10.458z" style="fill:#bababa"/>
<path d="m1438.5 405.84q0-11.725 4.4733-18.76 4.4728-7.2306 15.209-10.162-10.736-2.9313-15.209-9.9665-4.4733-7.2306-4.4733-18.956v-24.232q0-11.139-3.2211-16.415-3.2204-5.2764-12.167-5.2764h-4.2942v-14.266h4.1153q16.104 0 23.798 8.4031 7.873 8.4031 7.873 28.532v25.991q0 10.162 3.9366 14.657 4.1152 4.4947 12.525 4.4947h2.505v14.07h-2.505q-8.4097 0-12.525 4.4947-3.9366 4.4947-3.9366 14.657v25.991q0 20.128-7.873 28.532-7.6938 8.4031-23.798 8.4031h-4.1153v-14.266h4.2942q8.9467 0 12.167-5.2764 3.2211-5.2764 3.2211-16.415v-24.232z" style="fill:#bababa"/>
<path d="m1237.1 405.84q0-11.725-4.4734-18.76-4.4728-7.2306-15.208-10.162 10.736-2.9313 15.208-9.9665 4.4734-7.2306 4.4734-18.956v-24.232q0-11.139 3.221-16.415 3.2205-5.2764 12.167-5.2764h4.2941v-14.266h-4.1153q-16.104 0-23.798 8.4031-7.8731 8.4031-7.8731 28.532v25.991q0 10.162-3.9365 14.657-4.1152 4.4947-12.525 4.4947h-2.505v14.07h2.505q8.4097 0 12.525 4.4947 3.9365 4.4947 3.9365 14.657v25.991q0 20.128 7.8731 28.532 7.6938 8.4031 23.798 8.4031h4.1153v-14.266h-4.2941q-8.9467 0-12.167-5.2764-3.221-5.2764-3.221-16.415v-24.232z" style="fill:#bababa"/>
</g>
<g transform="translate(-666.27 -919.75)">
<rect style="stroke-width:.66030;fill:#bababa;fill-rule:evenodd" ry="7.4382" height="172.7" width="285.79" y="498.09" x="1194.9"/>
<rect style="stroke-width:.66030;fill:#e6e6e6;fill-rule:evenodd" ry="0" height="160.98" width="285.79" y="538.06" x="1194.9"/>
<ellipse style="stroke-width:.66030;fill:#e13f65;fill-rule:evenodd" rx="8.151" ry="8.5514" cy="518.51" cx="1223.5"/>
<ellipse style="stroke-width:.66030;fill:#ece971;fill-rule:evenodd" rx="8.151" ry="8.5514" cy="518.51" cx="1247.2"/>
<ellipse style="stroke-width:.66030;fill:#88ec78;fill-rule:evenodd" rx="8.151" ry="8.5514" cy="518.51" cx="1271"/>
<path d="m1288.5 518.51 6.2877-3.8086 6.2878-3.8086v7.6174 7.6174l-6.2878-3.8086z" style="stroke-width:.66030;fill:#fff;fill-rule:evenodd"/>
<path d="m1324.8 518.51-6.2878 3.8086-6.2877 3.8086v-7.6174-7.6174l6.2877 3.8086z" style="stroke-width:.66030;fill:#fff;fill-rule:evenodd"/>
<g style="stroke:#fff" transform="matrix(.45988 0 0 .48247 1282 426.17)">
<path d="m117.88 178.06 26.639 26.639" style="stroke:#fff;stroke-width:5.3466;fill:none"/>
<path d="m144.52 178.06-26.639 26.639" style="stroke:#fff;stroke-width:5.3466;fill:none"/>
</g>
<rect style="fill-rule:evenodd;stroke-dashoffset:54.27;stroke:#fff;stroke-linecap:round;stroke-width:1.8727;fill:#fff" height="14.65" width="95.872" y="511.19" x="1364.3"/>
<text style="font-size:48.824px;letter-spacing:0px;word-spacing:0px;font-family:sans-serif;line-height:125%;fill:#ababab" y="660.76709" x="1280.4485" xml:space="preserve"><tspan y="660.76709" x="1280.4485" style="font-size:112.91px;font-family:Seravek;fill:#ababab">UI</tspan></text>
</g>
</g>
</g>
</svg>
